<svg width="206" height="206" viewBox="0 0 206 206" fill="none" xmlns="http://www.w3.org/2000/svg">
<g clip-path="url(#clip0_1156_74013)">
<path d="M205.5 157.513H0.5V157.615H205.5V157.513Z" fill="#EBEBEB"/>
<path d="M184.959 164.11H171.38V164.212H184.959V164.11Z" fill="#EBEBEB"/>
<path d="M136.3 165.225H132.737V165.328H136.3V165.225Z" fill="#EBEBEB"/>
<path d="M170.97 160.305H163.102V160.407H170.97V160.305Z" fill="#EBEBEB"/>
<path d="M39.7164 160.994H22.0085V161.096H39.7164V160.994Z" fill="#EBEBEB"/>
<path d="M45.9649 160.994H43.3696V161.096H45.9649V160.994Z" fill="#EBEBEB"/>
<path d="M92.8115 162.724H54.4027V162.827H92.8115V162.724Z" fill="#EBEBEB"/>
<path d="M97.67 139.227H18.5031C17.883 139.226 17.2885 138.979 16.8504 138.54C16.4122 138.101 16.1661 137.506 16.1661 136.886V25.5994C16.1715 24.9828 16.42 24.3932 16.8576 23.9587C17.2952 23.5242 17.8865 23.2799 18.5031 23.2788H97.67C98.2909 23.2788 98.8864 23.5255 99.3254 23.9645C99.7645 24.4035 100.011 24.999 100.011 25.6199V136.886C100.011 137.507 99.7645 138.102 99.3254 138.541C98.8864 138.98 98.2909 139.227 97.67 139.227ZM18.5031 23.3608C17.9101 23.3619 17.3418 23.5982 16.9229 24.0179C16.5039 24.4376 16.2686 25.0064 16.2686 25.5994V136.886C16.2686 137.479 16.5039 138.047 16.9229 138.467C17.3418 138.887 17.9101 139.123 18.5031 139.124H97.67C98.2634 139.123 98.8322 138.887 99.2518 138.467C99.6713 138.048 99.9076 137.479 99.9086 136.886V25.5994C99.9076 25.006 99.6713 24.4373 99.2518 24.0177C98.8322 23.5981 98.2634 23.3619 97.67 23.3608H18.5031Z" fill="#EBEBEB"/>
<path d="M186.357 139.227H107.186C106.566 139.226 105.971 138.979 105.532 138.54C105.093 138.101 104.846 137.506 104.845 136.886V25.5994C104.851 24.9824 105.101 24.3928 105.539 23.9584C105.977 23.524 106.569 23.2799 107.186 23.2788H186.357C186.973 23.2809 187.563 23.5257 188 23.9601C188.437 24.3945 188.685 24.9835 188.69 25.5994V136.886C188.69 137.505 188.444 138.099 188.007 138.538C187.57 138.977 186.977 139.225 186.357 139.227ZM107.186 23.3608C106.593 23.3619 106.024 23.5981 105.604 24.0177C105.185 24.4373 104.949 25.006 104.947 25.5994V136.886C104.949 137.479 105.185 138.048 105.604 138.467C106.024 138.887 106.593 139.123 107.186 139.124H186.357C186.95 139.123 187.519 138.887 187.939 138.467C188.358 138.048 188.595 137.479 188.596 136.886V25.5994C188.595 25.006 188.358 24.4373 187.939 24.0177C187.519 23.5981 186.95 23.3619 186.357 23.3608H107.186Z" fill="#EBEBEB"/>
<path d="M119.273 72.0933H175.763V35.099L119.273 35.099V72.0933Z" fill="#E6E6E6"/>
<path d="M117.547 72.0933H174.955V35.099L117.547 35.099V72.0933Z" fill="#F0F0F0"/>
<path d="M119.273 79.3506H175.763V72.0895H119.273V79.3506Z" fill="#E6E6E6"/>
<path d="M114.681 79.3506H172.089V72.0895H114.681V79.3506Z" fill="#F0F0F0"/>
<path d="M172.544 69.6828V37.5142H119.962V69.6828H172.544Z" fill="#FAFAFA"/>
<path d="M160.687 69.6787L153.971 37.5142H143.492L150.207 69.6787H160.687Z" fill="white"/>
<path d="M171.429 67.2801C171.452 67.2801 171.475 67.2755 171.496 67.2666C171.517 67.2577 171.536 67.2446 171.552 67.2282C171.568 67.2118 171.581 67.1923 171.589 67.1709C171.598 67.1496 171.602 67.1267 171.601 67.1038V39.0844C171.601 39.0387 171.583 38.9949 171.551 38.9626C171.519 38.9303 171.475 38.9122 171.429 38.9122C171.406 38.9116 171.384 38.9157 171.363 38.9241C171.341 38.9326 171.322 38.9452 171.306 38.9613C171.29 38.9774 171.277 38.9967 171.269 39.0178C171.26 39.039 171.256 39.0616 171.257 39.0844V67.1038C171.256 67.1267 171.26 67.1496 171.269 67.1709C171.277 67.1923 171.29 67.2118 171.306 67.2282C171.322 67.2446 171.341 67.2577 171.362 67.2666C171.383 67.2755 171.406 67.2801 171.429 67.2801Z" fill="#F0F0F0"/>
<path d="M147.956 69.6787L141.241 37.5142H137.153L143.873 69.6787H147.956Z" fill="white"/>
<path d="M120.269 69.6828V37.5142H119.962V69.6828H120.269Z" fill="#E6E6E6"/>
<path opacity="0.6" d="M116.981 41.1506H173.471L173.692 38.4487H117.202L116.981 41.1506Z" fill="#EBEBEB"/>
<path opacity="0.6" d="M116.981 45.5787H173.471L173.692 42.8809H117.202L116.981 45.5787Z" fill="#EBEBEB"/>
<path opacity="0.6" d="M116.981 50.0069H173.471L173.692 47.3091H117.202L116.981 50.0069Z" fill="#EBEBEB"/>
<path opacity="0.6" d="M116.981 54.4387H173.471L173.692 51.7368H117.202L116.981 54.4387Z" fill="#EBEBEB"/>
<path opacity="0.6" d="M116.981 58.8669H173.471L173.692 56.165H117.202L116.981 58.8669Z" fill="#EBEBEB"/>
<path opacity="0.6" d="M116.981 63.2947H173.471L173.692 60.5928H117.202L116.981 63.2947Z" fill="#EBEBEB"/>
<path d="M167.653 130.608H155.808V132.945H167.653V130.608Z" fill="#E6E6E6"/>
<path d="M133.467 157.513H135.652V103.774H133.467V157.513Z" fill="#E6E6E6"/>
<path d="M125.89 132.946H155.804V130.609H125.89V132.946Z" fill="#F5F5F5"/>
<path d="M167.653 143.388H155.808V145.725H167.653V143.388Z" fill="#E6E6E6"/>
<path d="M125.89 145.721H155.804V143.384H125.89V145.721Z" fill="#F5F5F5"/>
<path d="M167.653 105.053H155.808V107.39H167.653V105.053Z" fill="#E6E6E6"/>
<path d="M125.89 107.386H155.804V105.049H125.89V107.386Z" fill="#F5F5F5"/>
<path d="M167.653 117.829H155.808V120.166H167.653V117.829Z" fill="#E6E6E6"/>
<path d="M125.89 120.166H155.804V117.829H125.89V120.166Z" fill="#F5F5F5"/>
<path d="M163.385 157.513H165.57V103.774H163.385V157.513Z" fill="#E6E6E6"/>
<path d="M153.619 157.513H155.804V103.774H153.619V157.513Z" fill="#F5F5F5"/>
<path d="M125.89 157.513H128.076V103.774H125.89V157.513Z" fill="#F5F5F5"/>
<path d="M27.3058 157.513H49.6836L49.6836 114.098H27.3058L27.3058 157.513Z" fill="#E6E6E6"/>
<path d="M33.2796 157.513H27.3018V151.519H39.5444L33.2796 157.513Z" fill="#FAFAFA"/>
<path d="M88.3138 157.513H110.692V114.098H88.3138V157.513Z" fill="#E6E6E6"/>
<path d="M27.3058 155.446H93.5331V114.094H27.3058V155.446Z" fill="#FAFAFA"/>
<path d="M87.5553 157.513H93.529V151.519H81.2905L87.5553 157.513Z" fill="#FAFAFA"/>
<path d="M31.9388 139.854H88.896V129.506H31.9388V139.854Z" fill="#F0F0F0"/>
<path d="M31.9388 152.413H88.896V142.064H31.9388V152.413Z" fill="#F0F0F0"/>
<path d="M78.072 130.613H42.7669C42.2689 130.613 41.7912 130.415 41.4391 130.063C41.0869 129.711 40.8891 129.233 40.8891 128.735V128.608H79.9457V128.735C79.9457 129.232 79.7484 129.709 79.3971 130.061C79.0459 130.413 78.5693 130.612 78.072 130.613Z" fill="#FAFAFA"/>
<path d="M31.9388 127.292H88.896V116.943H31.9388V127.292Z" fill="#F0F0F0"/>
<path d="M78.072 118.05H42.7669C42.2689 118.05 41.7912 117.852 41.4391 117.5C41.0869 117.148 40.8891 116.671 40.8891 116.172V116.045H79.9457V116.172C79.9457 116.67 79.7484 117.147 79.3971 117.499C79.0459 117.851 78.5693 118.049 78.072 118.05Z" fill="#FAFAFA"/>
<path d="M78.072 143.175H42.7669C42.2689 143.175 41.7912 142.977 41.4391 142.625C41.0869 142.273 40.8891 141.796 40.8891 141.297V141.17H79.9457V141.297C79.9457 141.795 79.7484 142.272 79.3971 142.624C79.0459 142.976 78.5693 143.174 78.072 143.175Z" fill="#FAFAFA"/>
<path d="M30.8687 72.0933H87.3585V35.099L30.8687 35.099L30.8687 72.0933Z" fill="#E6E6E6"/>
<path d="M29.1467 72.0933H86.5549V35.099L29.1467 35.099L29.1467 72.0933Z" fill="#F0F0F0"/>
<path d="M30.8687 79.3506H87.3585V72.0895H30.8687V79.3506Z" fill="#E6E6E6"/>
<path d="M26.2726 79.3506H83.6808V72.0895H26.2726V79.3506Z" fill="#F0F0F0"/>
<path d="M84.14 69.6828V37.5142H31.5575V69.6828H84.14Z" fill="#FAFAFA"/>
<path d="M72.2828 69.6787L65.567 37.5142H55.0874L61.8032 69.6787H72.2828Z" fill="white"/>
<path d="M83.0208 67.2801C83.0437 67.2801 83.0665 67.2755 83.0876 67.2666C83.1088 67.2577 83.1279 67.2446 83.144 67.2282C83.16 67.2118 83.1726 67.1923 83.181 67.1709C83.1895 67.1496 83.1935 67.1267 83.193 67.1038V39.0844C83.1935 39.0616 83.1895 39.039 83.181 39.0178C83.1725 38.9967 83.1599 38.9774 83.1438 38.9613C83.1277 38.9452 83.1085 38.9326 83.0873 38.9241C83.0662 38.9157 83.0435 38.9116 83.0208 38.9122C82.9751 38.9122 82.9313 38.9303 82.899 38.9626C82.8667 38.9949 82.8486 39.0387 82.8486 39.0844V67.1038C82.848 67.1267 82.8521 67.1496 82.8605 67.1709C82.8689 67.1923 82.8815 67.2118 82.8975 67.2282C82.9136 67.2446 82.9327 67.2577 82.9539 67.2666C82.9751 67.2755 82.9978 67.2801 83.0208 67.2801Z" fill="#F0F0F0"/>
<path d="M59.5523 69.6787L52.8365 37.5142H48.7488L55.4646 69.6787H59.5523Z" fill="white"/>
<path d="M31.865 69.6828L31.865 37.5142H31.5575L31.5575 69.6828H31.865Z" fill="#E6E6E6"/>
<path opacity="0.6" d="M28.5728 41.1506H85.0626L85.284 38.4487H28.7942L28.5728 41.1506Z" fill="#EBEBEB"/>
<path opacity="0.6" d="M28.5728 42.676H85.0626L85.284 39.9741H28.7942L28.5728 42.676Z" fill="#EBEBEB"/>
<path opacity="0.6" d="M28.5728 44.1968H85.0626L85.284 41.499H28.7942L28.5728 44.1968Z" fill="#EBEBEB"/>
<path opacity="0.6" d="M28.5728 45.7224H85.0626L85.284 43.0205H28.7942L28.5728 45.7224Z" fill="#EBEBEB"/>
<path opacity="0.6" d="M28.5728 47.2432H85.0626L85.284 44.5454H28.7942L28.5728 47.2432Z" fill="#EBEBEB"/>
<path opacity="0.6" d="M28.5728 48.7683H85.0626L85.284 46.0664H28.7942L28.5728 48.7683Z" fill="#EBEBEB"/>
<path d="M39.8682 112.77H41.8198V91.0026H39.8682V112.77Z" fill="#F5F5F5"/>
<path d="M40.1142 112.757H40.6677V90.9904H40.1142V112.757Z" fill="#FAFAFA"/>
<path d="M40.8973 112.757H41.1146V90.9904H40.8973V112.757Z" fill="#FAFAFA"/>
<path d="M48.0723 114.098H33.6239C33.6239 113.615 33.8157 113.152 34.157 112.811C34.4984 112.47 34.9615 112.278 35.4443 112.278H46.2478C46.7306 112.278 47.1936 112.47 47.535 112.811C47.8764 113.152 48.0682 113.615 48.0682 114.098H48.0723Z" fill="#F0F0F0"/>
<path d="M37.3344 104.516C37.483 104.515 37.6252 104.456 37.7303 104.351C37.8355 104.246 37.895 104.103 37.8961 103.955V89.6989C37.8961 89.5499 37.8369 89.4071 37.7315 89.3017C37.6262 89.1964 37.4833 89.1372 37.3344 89.1372C37.2602 89.1367 37.1868 89.1508 37.1181 89.1788C37.0495 89.2068 36.9871 89.2481 36.9345 89.3003C36.8819 89.3525 36.8402 89.4146 36.8117 89.483C36.7832 89.5514 36.7686 89.6248 36.7686 89.6989V103.971C36.7739 104.117 36.8358 104.256 36.9414 104.358C37.0469 104.46 37.1878 104.516 37.3344 104.516Z" fill="#F0F0F0"/>
<path d="M32.0988 96.177H49.5853L47.5722 83.959H34.1119L32.0988 96.177Z" fill="#E0E0E0"/>
<path d="M103 176.028C146.904 176.028 182.495 173.951 182.495 171.387C182.495 168.824 146.904 166.746 103 166.746C59.0962 166.746 23.5051 168.824 23.5051 171.387C23.5051 173.951 59.0962 176.028 103 176.028Z" fill="#F5F5F5"/>
<path d="M43.1886 83.6961L42.7797 83.7256L43.3243 91.2869L43.7333 91.2574L43.1886 83.6961Z" fill="#20C997"/>
<path d="M44.0111 95.161L43.6022 95.1904L43.8072 98.0367L44.2161 98.0072L44.0111 95.161Z" fill="#20C997"/>
<path d="M138.961 129.945H51.1555C50.1781 129.927 49.2418 129.548 48.5272 128.881C47.8125 128.214 47.3701 127.306 47.2851 126.333L42.9719 66.4193C42.9318 65.9572 42.9889 65.4919 43.1396 65.0532C43.2902 64.6146 43.5311 64.2124 43.8467 63.8725C44.1622 63.5326 44.5455 63.2625 44.9718 63.0798C45.398 62.897 45.8579 62.8055 46.3216 62.8113H134.127C135.104 62.8288 136.04 63.207 136.754 63.8731C137.469 64.5392 137.912 65.4462 137.998 66.4193L142.311 126.333C142.351 126.795 142.294 127.26 142.143 127.699C141.993 128.138 141.752 128.541 141.436 128.881C141.121 129.221 140.738 129.491 140.311 129.675C139.885 129.858 139.425 129.95 138.961 129.945Z" fill="#20C997"/>
<path d="M139.297 129.945H51.4917C50.5143 129.927 49.578 129.548 48.8634 128.881C48.1487 128.214 47.7062 127.306 47.6213 126.333L43.3081 66.4193C43.268 65.9572 43.3251 65.4919 43.4758 65.0532C43.6264 64.6146 43.8673 64.2124 44.1828 63.8725C44.4984 63.5326 44.8817 63.2625 45.3079 63.0798C45.7342 62.897 46.194 62.8055 46.6578 62.8113H134.463C135.44 62.8288 136.376 63.207 137.09 63.8731C137.805 64.5392 138.248 65.4462 138.334 66.4193L142.647 126.333C142.688 126.795 142.631 127.261 142.481 127.7C142.33 128.139 142.09 128.542 141.774 128.882C141.458 129.222 141.075 129.493 140.648 129.676C140.222 129.859 139.761 129.95 139.297 129.945Z" fill="#20C997"/>
<path opacity="0.5" d="M139.297 129.945H51.4917C50.5143 129.927 49.578 129.548 48.8634 128.881C48.1487 128.214 47.7062 127.306 47.6213 126.333L43.3081 66.4193C43.268 65.9572 43.3251 65.4919 43.4758 65.0532C43.6264 64.6146 43.8673 64.2124 44.1828 63.8725C44.4984 63.5326 44.8817 63.2625 45.3079 63.0798C45.7342 62.897 46.194 62.8055 46.6578 62.8113H134.463C135.44 62.8288 136.376 63.207 137.09 63.8731C137.805 64.5392 138.248 65.4462 138.334 66.4193L142.647 126.333C142.688 126.795 142.631 127.261 142.481 127.7C142.33 128.139 142.09 128.542 141.774 128.882C141.458 129.222 141.075 129.493 140.648 129.676C140.222 129.859 139.761 129.95 139.297 129.945Z" fill="white"/>
<path d="M134.595 64.6152H46.7889H46.4937C44.251 64.7997 44.7102 68.215 46.9734 68.215H134.927C137.194 68.215 137.161 64.7997 134.89 64.6152H134.595Z" fill="#20C997"/>
<path d="M49.0768 66.4192C49.0854 66.5249 49.0717 66.6312 49.0367 66.7313C49.0017 66.8314 48.9461 66.9231 48.8734 67.0003C48.8008 67.0776 48.7128 67.1388 48.615 67.1799C48.5173 67.2211 48.412 67.2413 48.3059 67.2392C48.0831 67.2361 47.8693 67.1506 47.7058 66.9991C47.5423 66.8477 47.4406 66.6411 47.4204 66.4192C47.4118 66.3138 47.4253 66.2079 47.4601 66.1081C47.4949 66.0082 47.5501 65.9168 47.6223 65.8396C47.6945 65.7624 47.782 65.7011 47.8793 65.6597C47.9765 65.6183 48.0814 65.5977 48.187 65.5992C48.4106 65.6013 48.6254 65.6864 48.7898 65.8379C48.9542 65.9894 49.0564 66.1966 49.0768 66.4192Z" fill="#FAFAFA"/>
<path d="M51.8935 66.4192C51.9021 66.5249 51.8885 66.6312 51.8535 66.7313C51.8185 66.8314 51.7628 66.9231 51.6902 67.0003C51.6176 67.0776 51.5295 67.1388 51.4318 67.1799C51.334 67.2211 51.2288 67.2413 51.1227 67.2392C50.8999 67.2361 50.6861 67.1506 50.5226 66.9991C50.359 66.8477 50.2574 66.6411 50.2371 66.4192C50.2285 66.3138 50.2421 66.2079 50.2769 66.1081C50.3116 66.0082 50.3669 65.9168 50.4391 65.8396C50.5113 65.7624 50.5988 65.7011 50.696 65.6597C50.7933 65.6183 50.8981 65.5977 51.0038 65.5992C51.2274 65.6013 51.4422 65.6864 51.6066 65.8379C51.7709 65.9894 51.8732 66.1966 51.8935 66.4192Z" fill="#FAFAFA"/>
<path d="M54.7061 66.4193C54.7147 66.5246 54.7011 66.6306 54.6663 66.7304C54.6316 66.8302 54.5763 66.9217 54.5041 66.9989C54.4319 67.0761 54.3444 67.1374 54.2472 67.1788C54.1499 67.2201 54.0451 67.2408 53.9394 67.2393C53.7163 67.2371 53.502 67.1518 53.3383 67.0003C53.1745 66.8487 53.0731 66.6416 53.0538 66.4193C53.0445 66.3138 53.0576 66.2075 53.0922 66.1074C53.1267 66.0073 53.1819 65.9156 53.2543 65.8383C53.3266 65.7609 53.4144 65.6997 53.5119 65.6585C53.6095 65.6173 53.7146 65.5971 53.8205 65.5993C54.0433 65.6024 54.2571 65.6879 54.4206 65.8393C54.5842 65.9907 54.6858 66.1973 54.7061 66.4193Z" fill="#FAFAFA"/>
<path d="M136.969 123.967H52.98C52.6252 123.961 52.2853 123.823 52.0261 123.581C51.767 123.339 51.6072 123.008 51.5778 122.655L48.0313 73.3852C48.0155 73.2161 48.0359 73.0456 48.091 72.885C48.1462 72.7244 48.2349 72.5774 48.3512 72.4537C48.4675 72.33 48.6088 72.2324 48.7658 72.1676C48.9227 72.1027 49.0916 72.0719 49.2613 72.0773H133.27C133.625 72.0821 133.965 72.2188 134.224 72.4605C134.483 72.7023 134.643 73.0319 134.673 73.3852L138.223 122.655C138.238 122.826 138.217 122.999 138.16 123.161C138.103 123.323 138.013 123.471 137.894 123.596C137.775 123.72 137.631 123.817 137.471 123.881C137.312 123.945 137.14 123.975 136.969 123.967Z" fill="white"/>
<path d="M101.577 105.197L100.208 86.2057L96.0669 83.7129H84.6648L86.2146 105.197H101.577Z" fill="white"/>
<path d="M101.577 105.394H86.2145C86.1637 105.395 86.1144 105.376 86.0769 105.342C86.0395 105.308 86.0168 105.26 86.0136 105.209L84.4679 83.7254C84.466 83.6984 84.4697 83.6714 84.4789 83.6459C84.488 83.6205 84.5025 83.5973 84.5212 83.5778C84.5393 83.5576 84.5614 83.5413 84.5861 83.53C84.6108 83.5187 84.6376 83.5126 84.6647 83.5122H96.0668C96.1028 83.5135 96.1379 83.5233 96.1693 83.5409L100.31 86.0337C100.338 86.0497 100.362 86.0722 100.379 86.0994C100.396 86.1265 100.406 86.1575 100.409 86.1895L101.77 105.181C101.773 105.208 101.769 105.236 101.76 105.263C101.751 105.289 101.736 105.313 101.717 105.332C101.699 105.352 101.677 105.367 101.653 105.378C101.629 105.388 101.603 105.394 101.577 105.394ZM86.4072 104.984H101.36L100.015 86.3084L96.0299 83.9099H84.8779L86.4072 104.984Z" fill="#20C997"/>
<path d="M100.208 86.2057L96.0669 83.7129L97.588 87.0175L100.208 86.2057Z" fill="#EBEBEB"/>
<path d="M97.588 87.2145C97.5501 87.2143 97.5131 87.2034 97.4812 87.1831C97.4493 87.1628 97.4238 87.1339 97.4076 87.0997L95.8865 83.7951C95.8687 83.7563 95.8635 83.7129 95.8716 83.671C95.8797 83.6291 95.9007 83.5908 95.9316 83.5614C95.9641 83.5336 96.0045 83.5166 96.0472 83.513C96.0898 83.5093 96.1326 83.5191 96.1694 83.5409L100.31 86.0337C100.344 86.0538 100.371 86.0829 100.388 86.1178C100.406 86.1526 100.413 86.1917 100.409 86.2305C100.403 86.2682 100.388 86.3037 100.363 86.3327C100.338 86.3618 100.306 86.3832 100.269 86.3945L97.6454 87.2145H97.588ZM96.5179 84.2133L97.6946 86.7758L99.7446 86.1485L96.5179 84.2133Z" fill="#20C997"/>
<path d="M91.1099 93.3892C91.1161 93.5006 91.0994 93.6121 91.061 93.7169C91.0225 93.8216 90.9631 93.9174 90.8863 93.9984C90.8096 94.0794 90.7171 94.1439 90.6145 94.1879C90.512 94.2319 90.4015 94.2545 90.2899 94.2543C90.0559 94.2501 89.8317 94.1594 89.6606 93.9997C89.4895 93.8399 89.3836 93.6224 89.3633 93.3892C89.3528 93.2766 89.3663 93.1631 89.4031 93.0562C89.4399 92.9492 89.4991 92.8514 89.5767 92.7691C89.6543 92.6869 89.7485 92.6221 89.8532 92.5791C89.9578 92.5362 90.0703 92.516 90.1833 92.52C90.4178 92.5252 90.642 92.6168 90.813 92.7772C90.984 92.9377 91.0898 93.1556 91.1099 93.3892Z" fill="#20C997"/>
<path d="M96.727 93.3892C96.737 93.5015 96.7229 93.6146 96.6859 93.721C96.6488 93.8274 96.5895 93.9248 96.512 94.0066C96.4345 94.0884 96.3405 94.1528 96.2362 94.1955C96.1319 94.2382 96.0197 94.2582 95.907 94.2543C95.6725 94.2502 95.4478 94.1596 95.276 94C95.1043 93.8403 94.9975 93.6228 94.9763 93.3892C94.9696 93.2775 94.9859 93.1655 95.024 93.0603C95.0622 92.9551 95.1216 92.8587 95.1984 92.7773C95.2752 92.6959 95.3679 92.631 95.4707 92.5868C95.5736 92.5425 95.6844 92.5198 95.7963 92.52C96.0317 92.5233 96.2575 92.6141 96.4296 92.7748C96.6016 92.9355 96.7077 93.1546 96.727 93.3892Z" fill="#20C997"/>
<path d="M98.3177 99.0223C98.2679 99.0214 98.2201 99.002 98.1837 98.9679C98.1474 98.9338 98.125 98.8874 98.1209 98.8377C98.0184 97.4396 95.829 96.304 93.2419 96.304C91.524 96.304 89.9824 96.8165 89.2198 97.6365C89.0632 97.7875 88.9405 97.9702 88.8599 98.1724C88.7793 98.3746 88.7426 98.5916 88.7524 98.8091C88.7543 98.836 88.7509 98.863 88.7423 98.8886C88.7337 98.9142 88.7202 98.9378 88.7025 98.9582C88.6668 98.9993 88.6161 99.0246 88.5618 99.0284C88.5074 99.0322 88.4537 99.0143 88.4126 98.9785C88.3715 98.9427 88.3462 98.8921 88.3424 98.8377C88.3302 98.5659 88.375 98.2946 88.4738 98.0411C88.5727 97.7876 88.7234 97.5576 88.9164 97.3658C89.7364 96.4679 91.4051 95.9062 93.2296 95.9062C96.0709 95.9062 98.3874 97.1814 98.5022 98.8091C98.5039 98.8349 98.5004 98.8608 98.4921 98.8854C98.4837 98.9099 98.4705 98.9325 98.4534 98.9519C98.4363 98.9713 98.4154 98.9872 98.3922 98.9986C98.3689 99.0099 98.3436 99.0166 98.3177 99.0181V99.0223Z" fill="#20C997"/>
<path d="M87.8997 91.6341C87.8497 91.6331 87.8017 91.6142 87.7644 91.5808C87.7271 91.5431 87.7062 91.4923 87.7062 91.4393C87.7062 91.3863 87.7271 91.3355 87.7644 91.2979L88.6377 90.359C88.6752 90.3229 88.7251 90.3027 88.7771 90.3027C88.8291 90.3027 88.8791 90.3229 88.9165 90.359C88.9349 90.3773 88.9494 90.399 88.9594 90.4229C88.9693 90.4468 88.9744 90.4725 88.9744 90.4984C88.9744 90.5243 88.9693 90.5499 88.9594 90.5738C88.9494 90.5978 88.9349 90.6195 88.9165 90.6378L88.0432 91.5767C88.0244 91.5954 88.002 91.6102 87.9773 91.62C87.9527 91.6299 87.9263 91.6347 87.8997 91.6341Z" fill="#20C997"/>
<path d="M97.9078 91.6341C97.858 91.6317 97.8105 91.613 97.7725 91.5808L96.768 90.6419C96.749 90.6235 96.7339 90.6015 96.7236 90.5772C96.7133 90.5529 96.708 90.5268 96.708 90.5004C96.708 90.474 96.7133 90.4479 96.7236 90.4236C96.7339 90.3993 96.749 90.3773 96.768 90.359C96.8054 90.3229 96.8554 90.3027 96.9074 90.3027C96.9594 90.3027 97.0093 90.3229 97.0468 90.359L98.0513 91.2979C98.0696 91.3162 98.0842 91.3379 98.0941 91.3618C98.104 91.3857 98.1092 91.4114 98.1092 91.4373C98.1092 91.4632 98.104 91.4888 98.0941 91.5127C98.0842 91.5367 98.0696 91.5584 98.0513 91.5767C98.0123 91.6131 97.9611 91.6336 97.9078 91.6341Z" fill="#20C997"/>
<path d="M83.4265 109.44H84.3531L85.6897 111.22L85.5626 109.44H86.4974L86.727 112.655H85.7799L84.4515 110.888L84.5786 112.655H83.6438L83.4265 109.44Z" fill="#20C997"/>
<path d="M87.1453 111.048C87.1136 110.83 87.1287 110.607 87.1895 110.395C87.2503 110.183 87.3554 109.986 87.4979 109.818C87.6536 109.665 87.8402 109.546 88.0452 109.471C88.2502 109.395 88.4689 109.364 88.6869 109.379C89.1489 109.354 89.6027 109.508 89.9538 109.81C90.2754 110.13 90.4617 110.562 90.4745 111.015C90.5083 111.328 90.4661 111.645 90.3515 111.938C90.2453 112.174 90.0674 112.37 89.8431 112.499C89.5739 112.644 89.2708 112.713 88.9657 112.7C88.652 112.71 88.3399 112.651 88.0514 112.528C87.7986 112.407 87.5854 112.216 87.4364 111.979C87.2605 111.699 87.1602 111.378 87.1453 111.048ZM88.1416 111.048C88.1376 111.3 88.2185 111.545 88.3712 111.745C88.4352 111.815 88.5139 111.871 88.6017 111.908C88.6896 111.945 88.7844 111.962 88.8796 111.958C88.9705 111.965 89.0615 111.949 89.145 111.912C89.2286 111.876 89.3021 111.82 89.3593 111.749C89.477 111.525 89.516 111.268 89.47 111.019C89.4717 110.778 89.3907 110.544 89.2404 110.355C89.1747 110.286 89.095 110.231 89.0066 110.195C88.9183 110.159 88.8232 110.142 88.7279 110.146C88.6387 110.142 88.5498 110.159 88.4686 110.196C88.3873 110.234 88.316 110.289 88.2605 110.359C88.1404 110.57 88.0983 110.817 88.1416 111.056V111.048Z" fill="#20C997"/>
<path d="M92.4015 109.44H93.8775C94.1208 109.433 94.3632 109.473 94.5909 109.559C94.7711 109.635 94.9311 109.751 95.0583 109.9C95.1874 110.05 95.2862 110.224 95.3494 110.412C95.4159 110.614 95.4572 110.823 95.4724 111.035C95.5039 111.303 95.483 111.575 95.4109 111.835C95.3544 112.015 95.2544 112.178 95.1198 112.31C95.0075 112.429 94.8662 112.517 94.7098 112.565C94.5191 112.62 94.322 112.65 94.1235 112.655H92.6516L92.4015 109.44ZM93.447 110.17L93.5741 111.925H93.816C93.9656 111.935 94.1155 111.911 94.2547 111.855C94.3465 111.802 94.4141 111.715 94.4433 111.613C94.4902 111.431 94.5014 111.242 94.4761 111.056C94.4839 110.806 94.4074 110.56 94.2588 110.359C94.1827 110.29 94.0931 110.238 93.9957 110.205C93.8983 110.173 93.7952 110.161 93.693 110.17H93.447Z" fill="#20C997"/>
<path d="M97.8544 112.122H96.7269L96.608 112.655H95.5953L96.5711 109.44H97.6699L99.109 112.655H98.0676L97.8544 112.122ZM97.5961 111.429L97.1615 110.273L96.8909 111.429H97.5961Z" fill="#20C997"/>
<path d="M98.6417 109.44H101.659L101.717 110.236H100.704L100.876 112.655H99.884L99.7118 110.236H98.6991L98.6417 109.44Z" fill="#20C997"/>
<path d="M103.972 112.122H102.844L102.725 112.655H101.713L102.688 109.44H103.771L105.206 112.655H104.168L103.972 112.122ZM103.713 111.429L103.275 110.273L103 111.429H103.713Z" fill="#20C997"/>
<path d="M145.513 71.6919C145.878 71.5074 146.333 71.2819 146.718 71.0482C147.104 70.8145 147.538 70.589 147.948 70.343C148.748 69.8469 149.56 69.359 150.326 68.8178C151.866 67.7641 153.31 66.5759 154.64 65.2672C154.808 65.1114 154.955 64.9392 155.115 64.7711L155.349 64.521L155.464 64.398L155.521 64.3324C155.464 64.4431 155.521 64.4103 155.521 64.3037C155.557 64.1573 155.578 64.0075 155.583 63.8568C155.573 62.985 155.473 62.1166 155.283 61.2656C154.918 59.4288 154.365 57.5346 153.82 55.6814L155.41 54.9844C156.414 56.7624 157.253 58.6289 157.915 60.5604C158.288 61.6042 158.525 62.6913 158.621 63.7953C158.646 64.1385 158.635 64.4834 158.588 64.8244C158.527 65.3065 158.356 65.7681 158.088 66.1733L158.018 66.2676L157.965 66.3332L157.903 66.4111L157.776 66.5669L157.522 66.8744C157.354 67.0753 157.19 67.2844 157.009 67.4771C155.607 69.033 154.043 70.4349 152.344 71.6591C151.524 72.2659 150.654 72.8481 149.765 73.377C149.326 73.6435 148.879 73.8977 148.424 74.1478C147.969 74.3979 147.526 74.6275 147.001 74.8735L145.513 71.6919Z" fill="#FFB573"/>
<path d="M141.864 168.083C142.171 168.075 142.476 168.034 142.774 167.96C142.789 167.955 142.803 167.947 142.814 167.935C142.824 167.924 142.832 167.91 142.836 167.894C142.838 167.879 142.835 167.863 142.829 167.848C142.822 167.834 142.812 167.821 142.799 167.812C142.68 167.735 141.638 167.062 141.237 167.243C141.192 167.263 141.154 167.296 141.126 167.336C141.098 167.376 141.081 167.423 141.077 167.472C141.061 167.549 141.065 167.63 141.088 167.705C141.112 167.78 141.155 167.848 141.212 167.903C141.4 168.04 141.632 168.104 141.864 168.083ZM142.54 167.845C141.946 167.964 141.495 167.944 141.31 167.784C141.274 167.746 141.247 167.699 141.232 167.649C141.218 167.598 141.217 167.544 141.228 167.493C141.23 167.471 141.237 167.45 141.249 167.432C141.262 167.414 141.279 167.4 141.298 167.39C141.515 167.296 142.118 167.599 142.54 167.845Z" fill="#20C997"/>
<path d="M142.77 167.96H142.811C142.823 167.953 142.833 167.942 142.84 167.93C142.847 167.918 142.851 167.904 142.852 167.89C142.852 167.845 142.852 166.857 142.475 166.529C142.43 166.486 142.375 166.453 142.316 166.434C142.256 166.415 142.193 166.409 142.131 166.418C142.066 166.419 142.003 166.442 141.953 166.483C141.903 166.524 141.869 166.581 141.856 166.644C141.778 167.054 142.401 167.771 142.729 167.96C142.742 167.964 142.757 167.964 142.77 167.96ZM142.184 166.57C142.25 166.57 142.315 166.595 142.364 166.64C142.581 166.959 142.692 167.337 142.684 167.722C142.356 167.46 141.967 166.902 142.016 166.669C142.016 166.632 142.044 166.582 142.147 166.57H142.184Z" fill="#20C997"/>
<path d="M142.45 61.438C142.04 63.488 141.22 67.588 142.635 68.9615C142.635 68.9615 142.077 71.0115 138.293 71.0115C134.127 71.0115 136.304 68.9615 136.304 68.9615C138.576 68.4203 138.514 66.7352 138.121 65.1485L142.45 61.438Z" fill="#FFB573"/>
<path d="M135.505 69.7814C134.853 69.8716 135.411 68.1783 135.673 68.002C136.288 67.592 144.226 67.0221 144.172 68.002C144.139 68.412 143.943 69.232 143.598 69.5026C143.254 69.7732 141.212 68.9286 135.505 69.7814Z" fill="#263238"/>
<path d="M136.801 69.1991C136.28 69.3754 136.329 67.6698 136.505 67.4648C136.915 66.9892 143.34 65.341 143.529 66.2717C143.602 66.6817 143.639 67.5017 143.418 67.7928C143.196 68.0839 141.311 67.6042 136.801 69.1991Z" fill="#263238"/>
<path d="M134.41 57.7642C134.384 57.7653 134.359 57.7603 134.335 57.7496C134.312 57.7389 134.291 57.7228 134.275 57.7027C134.15 57.5413 133.988 57.4116 133.804 57.324C133.62 57.2364 133.417 57.1934 133.213 57.1983C133.192 57.2012 133.17 57.1997 133.149 57.194C133.128 57.1883 133.109 57.1784 133.092 57.165C133.075 57.1516 133.061 57.1349 133.051 57.116C133.041 57.0971 133.035 57.0763 133.033 57.0549C133.029 57.0126 133.042 56.9707 133.069 56.9378C133.096 56.9049 133.134 56.8837 133.176 56.8785C133.434 56.8654 133.692 56.9148 133.926 57.0226C134.161 57.1304 134.367 57.2934 134.525 57.4977C134.552 57.5309 134.566 57.5737 134.562 57.6167C134.558 57.6596 134.537 57.6994 134.504 57.7273C134.477 57.7472 134.444 57.7599 134.41 57.7642Z" fill="#263238"/>
<path d="M133.615 59.769C133.429 60.4231 133.153 61.0482 132.795 61.6263C132.945 61.7128 133.113 61.7653 133.285 61.7802C133.458 61.795 133.632 61.7719 133.795 61.7124L133.615 59.769Z" fill="#FF5652"/>
<path d="M133.816 59.273C133.844 59.5477 133.717 59.7855 133.537 59.8019C133.356 59.8183 133.188 59.6133 133.164 59.3345C133.139 59.0557 133.262 58.822 133.438 58.8056C133.615 58.7892 133.787 58.9942 133.816 59.273Z" fill="#263238"/>
<path d="M133.52 58.8136L132.84 58.6865C132.84 58.6865 133.229 59.1703 133.52 58.8136Z" fill="#263238"/>
<path d="M146.747 167.882H143.311L143.582 159.928H147.018L146.747 167.882Z" fill="#FFB573"/>
<path d="M143.041 167.484H146.899C146.965 167.483 147.03 167.506 147.081 167.549C147.131 167.592 147.164 167.652 147.173 167.718L147.612 170.769C147.621 170.846 147.613 170.924 147.589 170.998C147.566 171.072 147.527 171.14 147.475 171.197C147.423 171.255 147.359 171.301 147.288 171.333C147.217 171.364 147.14 171.38 147.063 171.379C145.718 171.359 145.07 171.277 143.373 171.277C142.327 171.277 140.802 171.388 139.363 171.388C137.924 171.388 137.842 169.961 138.445 169.834C141.134 169.252 141.561 168.456 142.467 167.694C142.628 167.56 142.831 167.486 143.041 167.484Z" fill="#263238"/>
<g opacity="0.2">
<path d="M147.018 159.928H143.582L143.443 164.028H146.878L147.018 159.928Z" fill="black"/>
</g>
<path d="M133.082 73.709C130.979 72.8915 128.92 71.9678 126.911 70.9415C124.837 69.9277 122.86 68.724 121.007 67.3458C120.512 66.958 120.044 66.5375 119.605 66.0871C119.49 65.9641 119.375 65.8493 119.265 65.7058C119.135 65.5591 119.014 65.4044 118.904 65.2425C118.602 64.802 118.413 64.2935 118.355 63.7624C118.309 63.2588 118.378 62.7516 118.555 62.2782C118.698 61.8976 118.892 61.5388 119.134 61.2122C119.53 60.6706 119.997 60.1851 120.523 59.769C121.452 59.0292 122.455 58.3876 123.516 57.8543C124.025 57.5837 124.541 57.3418 125.066 57.1163C125.591 56.8908 126.108 56.6776 126.669 56.4849L127.395 58.0634C125.607 59.1909 123.754 60.4332 122.393 61.819C122.088 62.1276 121.82 62.4702 121.594 62.8399C121.397 63.1638 121.401 63.4057 121.434 63.3852C121.466 63.3647 121.434 63.3852 121.491 63.4262L121.655 63.6025C121.717 63.6763 121.803 63.7501 121.881 63.828C122.228 64.1476 122.596 64.4435 122.983 64.7136C123.83 65.3128 124.712 65.8605 125.624 66.3536C126.546 66.8702 127.498 67.3581 128.465 67.8255C130.4 68.7521 132.401 69.6418 134.365 70.4536L133.082 73.709Z" fill="#FFB573"/>
<path d="M128.42 56.9606L128.986 55.7306L126.395 54.8491C126.395 54.8491 125.575 57.2722 126.546 58.3874C126.952 58.3235 127.336 58.1596 127.663 57.9106C127.99 57.6615 128.25 57.3351 128.42 56.9606Z" fill="#FFB573"/>
<path d="M128.974 53.0698L126.911 52.4712L126.395 54.8328L128.974 55.7307V53.0698Z" fill="#FFB573"/>
<path d="M155.624 55.8495L155.923 52.9795L153.266 53.6191C153.266 53.6191 153.225 56.3169 154.631 56.7433L155.624 55.8495Z" fill="#FFB573"/>
<path d="M154.644 50.958L152.909 51.7657L153.266 53.5984L155.923 52.9711L154.644 50.958Z" fill="#FFB573"/>
<path d="M142.991 57.4117C143.119 60.8188 143.242 62.2579 141.704 64.1644C139.388 67.0344 135.177 66.4399 134.037 63.1394C133.012 60.171 132.979 55.0993 136.161 53.4265C136.86 53.0546 137.643 52.8676 138.435 52.8832C139.227 52.8989 140.002 53.1166 140.687 53.5158C141.371 53.9151 141.942 54.4825 142.345 55.1644C142.749 55.8462 142.971 56.6198 142.991 57.4117Z" fill="#FFB573"/>
<path d="M141.507 64.1601C144.853 62.7128 147.051 59.6501 146.124 54.9023C145.234 50.3472 142.159 49.8962 140.888 50.8392C139.617 51.7822 136.448 50.3759 134.546 51.9749C131.266 54.7506 134.365 57.7149 135.989 59.5066C136.956 61.4992 138.227 65.5746 141.507 64.1601Z" fill="#263238"/>
<path d="M140.117 54.0867C140.526 54.6102 141.078 55.0028 141.707 55.216C142.335 55.4291 143.013 55.4535 143.655 55.2861C144.297 55.1187 144.877 54.7669 145.321 54.2741C145.766 53.7812 146.057 53.169 146.158 52.5128C146.258 51.8567 146.165 51.1854 145.888 50.5819C145.612 49.9783 145.165 49.4689 144.602 49.1165C144.04 48.7642 143.386 48.5842 142.723 48.599C142.059 48.6137 141.414 48.8225 140.868 49.1995C140.12 49.7483 139.622 50.5713 139.481 51.4878C139.34 52.4042 139.569 53.339 140.117 54.0867Z" fill="#20C997"/>
<path d="M140.987 51.1591C140.507 48.4121 143.102 46.2965 146.579 47.3174C150.056 48.3383 148.219 51.4174 147.501 53.8774C146.784 56.3374 148.662 58.6826 149.441 56.8089C150.22 54.9352 148.908 54.3489 148.908 54.3489C148.908 54.3489 152.598 55.3042 149.17 59.4657C145.743 63.6272 142.639 59.0311 143.479 56.321C144.16 54.1439 141.442 53.7544 140.987 51.1591Z" fill="#263238"/>
<path d="M137.514 52.1964C135.927 51.3764 133.242 50.7 131.712 53.2748C130.991 54.5048 131.27 56.1448 131.27 56.1448L135.939 56.4523L137.514 52.1964Z" fill="#263238"/>
<path d="M130.72 55.3329C130.693 55.3308 130.667 55.3181 130.649 55.2974C130.63 55.2768 130.621 55.2498 130.622 55.2222C130.622 55.1525 130.741 53.5043 131.737 52.4711C134.144 49.9701 136.964 52.0611 137.768 52.7376C137.785 52.7559 137.795 52.7799 137.796 52.8051C137.797 52.8302 137.788 52.8548 137.772 52.874C137.756 52.8933 137.733 52.9059 137.708 52.9095C137.683 52.913 137.658 52.9073 137.637 52.8934C136.862 52.2292 134.164 50.2407 131.897 52.6105C130.954 53.5904 130.839 55.2181 130.839 55.2345C130.839 55.2491 130.835 55.2634 130.829 55.2766C130.822 55.2897 130.813 55.3013 130.802 55.3107C130.791 55.32 130.778 55.3268 130.763 55.3306C130.749 55.3344 130.735 55.3352 130.72 55.3329Z" fill="#263238"/>
<path d="M136.559 59.3592C136.54 60.0042 136.301 60.6235 135.882 61.114C135.316 61.7782 134.652 61.4502 134.517 60.704C134.381 60.0439 134.517 58.9 135.23 58.5023C135.944 58.1046 136.567 58.613 136.559 59.3592Z" fill="#FFB573"/>
<path d="M135.821 90.5684C135.821 90.5684 136.042 114.41 138.108 127.694C139.781 138.424 142.868 163.237 142.868 163.237H147.555C147.555 163.237 148.01 139.28 147.145 128.67C145 101.815 150.54 96.7922 146.071 90.5684H135.821Z" fill="#263238"/>
<path opacity="0.1" d="M135.821 90.5684C135.821 90.5684 136.042 114.41 138.108 127.694C139.781 138.424 142.868 163.237 142.868 163.237H147.555C147.555 163.237 148.01 139.28 147.145 128.67C145 101.815 150.54 96.7922 146.071 90.5684H135.821Z" fill="white"/>
<path opacity="0.3" d="M138.285 101.384C139.925 108.579 138.617 119.912 137.719 124.902C136.768 117.325 136.288 107.505 136.05 100.302C136.899 98.9322 137.702 98.842 138.285 101.384Z" fill="black"/>
<path d="M142.229 163.327H148.194L148.506 161.236L142.196 161.022L142.229 163.327Z" fill="#20C997"/>
<path d="M143.93 70.4289C144.492 69.3137 147.51 68.6126 149.158 68.6167L150.388 74.0943C150.388 74.0943 147.108 78.9692 145.738 78.4526C144.127 77.8581 142.729 72.8356 143.93 70.4289Z" fill="#20C997"/>
<path opacity="0.4" d="M143.93 70.4289C144.492 69.3137 147.51 68.6126 149.158 68.6167L150.388 74.0943C150.388 74.0943 147.108 78.9692 145.738 78.4526C144.127 77.8581 142.729 72.8356 143.93 70.4289Z" fill="black"/>
<path d="M140.454 161.986C140.46 161.974 140.464 161.961 140.464 161.947C140.464 161.934 140.46 161.92 140.454 161.908C140.446 161.893 140.433 161.88 140.418 161.872C140.402 161.864 140.385 161.861 140.367 161.863C140.195 161.892 138.678 162.13 138.473 162.564C138.451 162.604 138.44 162.648 138.44 162.693C138.44 162.739 138.451 162.783 138.473 162.823C138.508 162.887 138.559 162.943 138.62 162.983C138.682 163.024 138.752 163.049 138.826 163.056C139.322 163.106 140.056 162.417 140.425 161.999L140.454 161.986ZM138.633 162.618C138.773 162.388 139.56 162.175 140.158 162.064C139.617 162.614 139.142 162.921 138.863 162.884C138.814 162.879 138.768 162.863 138.728 162.835C138.688 162.808 138.655 162.771 138.633 162.728C138.624 162.713 138.619 162.695 138.619 162.677C138.619 162.659 138.624 162.641 138.633 162.626C138.633 162.626 138.629 162.622 138.633 162.618Z" fill="#20C997"/>
<path d="M140.454 161.986C140.46 161.974 140.464 161.961 140.464 161.947C140.464 161.934 140.46 161.92 140.454 161.908C140.429 161.88 139.822 161.179 139.26 161.142C139.18 161.135 139.098 161.145 139.021 161.171C138.944 161.197 138.874 161.239 138.814 161.293C138.645 161.445 138.662 161.576 138.703 161.658C138.879 162.011 139.97 162.134 140.408 162.04C140.42 162.035 140.43 162.028 140.438 162.019C140.446 162.009 140.451 161.998 140.454 161.986ZM138.85 161.47C138.868 161.442 138.891 161.417 138.916 161.396C138.959 161.355 139.01 161.324 139.066 161.305C139.122 161.286 139.181 161.279 139.24 161.285C139.621 161.379 139.964 161.59 140.22 161.888C139.732 161.929 138.945 161.781 138.838 161.568C138.831 161.552 138.829 161.535 138.831 161.517C138.833 161.5 138.84 161.484 138.85 161.47Z" fill="#20C997"/>
<path d="M144.033 160.531L140.892 161.929L139.494 159.014L137.666 155.201L137.448 154.758L140.589 153.36L140.831 153.86L142.602 157.554L144.033 160.531Z" fill="#FFB573"/>
<path opacity="0.2" d="M142.602 157.554L139.494 159.014L137.666 155.201L140.831 153.86L142.602 157.554Z" fill="black"/>
<path d="M132.139 90.5684C132.139 90.5684 122.106 115.529 124.824 127.255C127.284 137.87 138.149 157.972 138.149 157.972L142.36 155.865C142.36 155.865 135.64 131.597 134.914 126.324C133.496 116.074 142.61 101.589 142.61 90.5684H132.139Z" fill="#263238"/>
<path opacity="0.1" d="M132.139 90.5684C132.139 90.5684 122.106 115.529 124.824 127.255C127.284 137.87 138.149 157.972 138.149 157.972L142.36 155.865C142.36 155.865 135.64 131.597 134.914 126.324C133.496 116.074 142.61 101.589 142.61 90.5684H132.139Z" fill="white"/>
<path d="M140.335 161.49L143.451 159.223C143.503 159.182 143.569 159.162 143.636 159.166C143.702 159.171 143.765 159.2 143.812 159.248L145.964 161.457C146.016 161.515 146.056 161.583 146.08 161.657C146.104 161.731 146.112 161.809 146.104 161.887C146.096 161.964 146.072 162.039 146.033 162.106C145.994 162.174 145.941 162.232 145.878 162.277C144.775 163.048 144.205 163.368 142.836 164.364C141.991 164.979 140.31 166.336 139.146 167.185C137.981 168.034 137.096 166.927 137.506 166.472C139.342 164.422 139.728 163.151 140.015 161.999C140.059 161.797 140.172 161.618 140.335 161.49Z" fill="#263238"/>
<path d="M137.879 158.862L143.303 156.381L142.61 154.171L136.8 156.82L137.879 158.862Z" fill="#20C997"/>
<path d="M134.8 70.1669C134.353 69.0025 130.433 67.7069 128.465 67.2969L127.6 73.7421C127.6 73.7421 130.814 78.3587 132.221 77.9774C133.885 77.5264 135.767 72.6638 134.8 70.1669Z" fill="#20C997"/>
<path opacity="0.4" d="M134.8 70.1669C134.353 69.0025 130.433 67.7069 128.465 67.2969L127.6 73.7421C127.6 73.7421 130.814 78.3587 132.221 77.9774C133.885 77.5264 135.767 72.6638 134.8 70.1669Z" fill="black"/>
<path d="M130.499 69.8426C130.499 69.8426 128.859 70.4166 132.139 90.5681H146.079C145.845 84.8937 145.837 81.3923 148.539 69.7401C146.585 69.3371 144.605 69.0767 142.614 68.9611C140.507 68.8092 138.391 68.8092 136.284 68.9611C133.582 69.1989 130.499 69.8426 130.499 69.8426Z" fill="#20C997"/>
<path opacity="0.4" d="M130.499 69.8426C130.499 69.8426 128.859 70.4166 132.139 90.5681H146.079C145.845 84.8937 145.837 81.3923 148.539 69.7401C146.585 69.3371 144.605 69.0767 142.614 68.9611C140.507 68.8092 138.391 68.8092 136.284 68.9611C133.582 69.1989 130.499 69.8426 130.499 69.8426Z" fill="black"/>
<path d="M146.296 89.7522L146.923 90.9822C146.973 91.0806 146.858 91.179 146.698 91.179H132.069C131.942 91.179 131.84 91.1175 131.831 91.0355L131.704 89.8055C131.704 89.7194 131.807 89.6456 131.942 89.6456H146.05C146.097 89.6382 146.145 89.6443 146.189 89.6632C146.232 89.6821 146.269 89.713 146.296 89.7522Z" fill="#20C997"/>
<path opacity="0.3" d="M146.296 89.7522L146.923 90.9822C146.973 91.0806 146.858 91.179 146.698 91.179H132.069C131.942 91.179 131.84 91.1175 131.831 91.0355L131.704 89.8055C131.704 89.7194 131.807 89.6456 131.942 89.6456H146.05C146.097 89.6382 146.145 89.6443 146.189 89.6632C146.232 89.6821 146.269 89.713 146.296 89.7522Z" fill="white"/>
<path d="M144.41 91.3391H144.787C144.865 91.3391 144.923 91.2981 144.914 91.253L144.738 89.613C144.738 89.5638 144.668 89.5269 144.595 89.5269H144.213C144.139 89.5269 144.082 89.5638 144.086 89.613L144.262 91.253C144.258 91.2899 144.324 91.3391 144.41 91.3391Z" fill="#263238"/>
<path d="M135.23 91.3391H135.607C135.681 91.3391 135.739 91.2981 135.734 91.253L135.558 89.613C135.558 89.5638 135.488 89.5269 135.411 89.5269H135.033C134.955 89.5269 134.902 89.5638 134.906 89.613L135.083 91.253C135.087 91.2899 135.152 91.3391 135.23 91.3391Z" fill="#263238"/>
</g>
<defs>
<clipPath id="clip0_1156_74013">
<rect width="205" height="205" fill="white" transform="translate(0.5 0.729004)"/>
</clipPath>
</defs>
</svg>
